<?xml version="1.0" encoding="UTF-8"?>
<!DOCTYPE svg PUBLIC "-//W3C//DTD SVG 1.1//EN" "http://www.w3.org/Graphics/SVG/1.1/DTD/svg11.dtd">
<!-- Creator: CorelDRAW X8 -->
<svg xmlns="http://www.w3.org/2000/svg" xml:space="preserve" width="483mm" height="330mm" version="1.1" style="shape-rendering:geometricPrecision; text-rendering:geometricPrecision; image-rendering:optimizeQuality; fill-rule:evenodd; clip-rule:evenodd"
viewBox="0 0 48300 33000"
 xmlns:xlink="http://www.w3.org/1999/xlink">
 <defs>
  <style type="text/css">
   <![CDATA[
    .fil0 {fill:#F2F0D8}
    .fil1 {fill:#5CC9BA;fill-rule:nonzero}
   ]]>
  </style>
 </defs>
 <g id="Capa_x0020_1">
  <metadata id="CorelCorpID_0Corel-Layer"/>
  <g id="_1563276161776">
   <rect class="fil0" x="91" y="11635" width="48119" height="9730"/>
   <g>
    <path class="fil1" d="M9729 18031c-66,256 -168,488 -308,695 -139,207 -316,390 -531,551 -213,160 -443,281 -688,361 -246,80 -505,120 -779,120 -485,0 -929,-76 -1333,-227 -407,-153 -770,-381 -1086,-685 -318,-306 -557,-656 -716,-1052 -159,-392 -238,-825 -238,-1298 0,-472 79,-907 238,-1304 159,-399 397,-755 713,-1068l1 -1c316,-312 675,-547 1079,-704 400,-156 839,-234 1317,-234 541,0 1010,118 1407,355 204,122 376,270 517,447 141,176 248,377 321,602l26 81 -695 643c-71,-153 -158,-287 -260,-401 -102,-115 -221,-212 -358,-291 -137,-81 -287,-141 -449,-182 -164,-41 -342,-62 -533,-62 -306,0 -584,49 -834,148 -248,98 -470,245 -667,441l1 0c-197,197 -345,420 -442,668 -99,252 -149,533 -149,845 0,310 50,589 149,838 98,246 246,467 444,662 198,196 423,342 675,439 254,98 539,148 855,148 188,0 367,-30 536,-88 171,-59 334,-147 489,-266 155,-119 283,-251 381,-395 97,-141 168,-294 211,-461l726 599 -20 76zm4350 1595l-905 48 0 -2939c0,-584 -290,-876 -870,-876 -183,0 -344,28 -485,82 -137,53 -258,133 -362,239 -106,108 -185,230 -238,365 -53,138 -80,293 -80,468l0 2599 -1167 62 0 -6114 1167 -324 0 1925c63,-45 129,-87 200,-127 157,-87 323,-152 497,-195 174,-44 355,-65 542,-65 635,0 1120,157 1454,472 340,319 510,782 510,1390l0 2976 -263 14zm5417 -2505l-3680 779c27,57 57,111 90,162l-1 0c79,123 178,229 297,321 119,91 248,159 387,204 141,46 296,69 465,69 173,0 327,-18 463,-54 131,-34 248,-85 353,-153 106,-70 199,-152 280,-248 83,-97 153,-209 210,-333l157 -342 830 748 -83 184c-197,432 -485,759 -863,978 -372,214 -823,322 -1355,322 -378,0 -720,-56 -1026,-168 -313,-114 -586,-286 -818,-516 -232,-229 -406,-497 -522,-805 -114,-303 -171,-640 -171,-1011 0,-706 241,-1297 722,-1772 240,-238 512,-416 816,-535 302,-118 632,-177 991,-177 329,0 636,53 919,159 286,107 545,267 775,479l0 1c220,201 386,417 498,648 157,391 242,657 266,1060zm-1455 -666c-11,-28 -24,-56 -38,-83 -53,-99 -130,-190 -231,-273l0 -1c-101,-84 -214,-148 -339,-190 -127,-43 -268,-65 -424,-65 -194,0 -370,32 -528,95 -156,63 -297,158 -424,286 -126,127 -221,270 -284,431 -27,68 -48,139 -63,214l2331 -414zm4054 -481l-747 0 0 2238c0,252 137,378 412,378l632 0 -197 1102 -534 0c-987,0 -1480,-458 -1480,-1374l0 -2344 -878 0 184 -1086 694 0 0 -989 1167 -316 0 1305 1024 0 0 1086 -277 0z"/>
    <path class="fil1" d="M27727 18953l-165 726 -4369 0 0 -6404 4304 0 109 818 -3542 0 0 1851 3203 0 0 808 -3203 0 0 2110 3684 0 -21 91zm4744 717l-747 40 0 -2956c0,-195 -25,-367 -76,-514 -49,-145 -123,-266 -222,-364l0 0c-98,-98 -220,-172 -365,-222 -147,-51 -319,-76 -516,-76 -228,0 -433,35 -614,105 -181,69 -339,173 -476,311 -136,140 -239,297 -307,473 -68,177 -102,373 -102,590l0 2609 -818 44 0 -4730 818 -65 0 680c43,-58 90,-114 141,-166 115,-118 249,-222 403,-311 153,-89 314,-156 484,-201 169,-45 346,-67 529,-67 641,0 1124,150 1449,450 326,302 490,751 490,1348l0 3018 -71 4zm4961 -4590l-2070 4653 -426 0c-732,-1582 -1465,-3163 -2198,-4745l851 -109 1570 3490 1482 -3489 832 108 -41 92zm1052 4590l-746 40 0 -4730 818 -65 0 4751 -72 4zm1417 -6246l-1419 1273 -793 0 1265 -1404 1092 0 -145 131zm4384 3907c0,723 -242,1317 -726,1783 -242,233 -517,408 -826,524 -309,117 -650,175 -1023,175 -371,0 -709,-58 -1014,-175 -306,-116 -579,-291 -818,-524 -239,-233 -418,-498 -537,-796 -120,-298 -180,-627 -180,-987 0,-360 61,-689 182,-987 121,-297 302,-563 544,-796 242,-233 517,-408 824,-524 307,-116 646,-174 1017,-174 370,0 708,57 1015,173 306,115 580,289 820,521 241,231 421,496 541,795 121,298 181,629 181,992zm-800 0c0,-502 -166,-918 -498,-1244 -166,-164 -354,-287 -565,-368 -211,-82 -445,-123 -703,-123 -258,0 -493,40 -703,122 -210,81 -397,202 -561,365 -165,161 -288,346 -370,553 -83,208 -124,439 -124,695 0,503 166,918 498,1244 166,164 354,287 563,369 210,81 442,122 697,122 258,0 492,-41 703,-122 211,-82 399,-205 565,-369 166,-163 291,-348 373,-555 83,-207 125,-436 125,-689z"/>
   </g>
  </g>
 </g>
</svg>
