<?xml version="1.0" encoding="UTF-8"?>
<!DOCTYPE svg PUBLIC "-//W3C//DTD SVG 1.1//EN" "http://www.w3.org/Graphics/SVG/1.1/DTD/svg11.dtd">
<!-- Creator: CorelDRAW X8 -->
<svg xmlns="http://www.w3.org/2000/svg" xml:space="preserve" width="483mm" height="330mm" version="1.1" style="shape-rendering:geometricPrecision; text-rendering:geometricPrecision; image-rendering:optimizeQuality; fill-rule:evenodd; clip-rule:evenodd"
viewBox="0 0 48300 33000"
 xmlns:xlink="http://www.w3.org/1999/xlink">
 <defs>
  <style type="text/css">
   <![CDATA[
    .str0 {stroke:#F2F0D8;stroke-width:105.83}
    .fil1 {fill:#F2F0D8}
    .fil0 {fill:#F2F0D8;fill-rule:nonzero}
   ]]>
  </style>
 </defs>
 <g id="Capa_x0020_1">
  <metadata id="CorelCorpID_0Corel-Layer"/>
  <g id="_2204516666032">
   <path class="fil0" d="M24960 20910c-184,715 -471,1363 -861,1942 -390,578 -885,1092 -1484,1542 -598,448 -1240,784 -1926,1008 -687,224 -1413,336 -2179,336 -1355,0 -2597,-212 -3727,-634 -1140,-427 -2153,-1066 -3038,-1916 -889,-855 -1557,-1835 -2003,-2941 -443,-1097 -664,-2308 -664,-3632 0,-1321 221,-2536 664,-3646 446,-1116 1110,-2111 1994,-2986l3 -3c883,-874 1889,-1530 3017,-1970 1120,-437 2348,-655 3685,-655 1514,0 2825,331 3935,993 570,340 1052,757 1446,1250 394,493 693,1055 897,1685l74 227 -1945 1798c-198,-429 -440,-804 -726,-1124 -286,-319 -620,-590 -1001,-813 -383,-224 -803,-394 -1258,-508 -459,-116 -956,-174 -1490,-174 -857,0 -1634,139 -2332,415 -694,274 -1315,685 -1864,1231l1 2c-551,552 -964,1174 -1236,1867 -277,705 -415,1493 -415,2365 0,867 138,1648 415,2342 274,689 688,1307 1242,1853 554,547 1183,956 1887,1228 710,274 1508,412 2393,412 526,0 1025,-82 1499,-245 478,-164 933,-412 1365,-744 436,-334 792,-702 1068,-1104 271,-394 468,-824 590,-1290l2029 1675 -55 214zm12166 4459l-2531 135 0 -8221c0,-1633 -811,-2448 -2433,-2448 -512,0 -964,76 -1357,229 -383,148 -721,371 -1013,668 -296,302 -518,643 -664,1021 -149,384 -224,821 -224,1309l0 7267 -3265 175 0 -17100 3265 -905 0 5382c175,-126 361,-243 558,-353 439,-244 903,-427 1390,-548 487,-121 992,-182 1516,-182 1775,0 3131,440 4068,1321 949,892 1424,2189 1424,3889l0 8321 -734 40z"/>
   <path class="fil1 str0" d="M33244 5938c-49,-207 35,-713 254,-1516l-4067 2534 4779 418c-360,-476 -631,-797 -815,-964 1811,-197 3278,58 4403,763 1201,833 1074,2319 -380,4459 -1374,2023 -3438,4225 -6192,6605 -3258,2790 -6938,5630 -11040,8519 5715,-2809 11191,-6534 16429,-11176 3146,-3210 4525,-5978 4138,-8305 -587,-1757 -2079,-2481 -4477,-2172 -1045,159 -2055,437 -3032,835zm-19681 21710c50,206 -35,712 -254,1516l4067 -2534 -4778 -419c359,476 630,797 814,964 -1810,197 -3278,-57 -4403,-763 -1200,-833 -1074,-2319 380,-4459 1375,-2023 3439,-4225 6192,-6605 3258,-2790 6938,-5630 11041,-8519 -5715,2809 -11192,6534 -16430,11176 -3146,3210 -4525,5978 -4138,8305 587,1757 2080,2481 4478,2172 1044,-159 2055,-437 3031,-834z"/>
  </g>
 </g>
</svg>
