<?xml version="1.0" encoding="UTF-8"?>
<!DOCTYPE svg PUBLIC "-//W3C//DTD SVG 1.1//EN" "http://www.w3.org/Graphics/SVG/1.1/DTD/svg11.dtd">
<!-- Creator: CorelDRAW X8 -->
<svg xmlns="http://www.w3.org/2000/svg" xml:space="preserve" width="483mm" height="330mm" version="1.1" style="shape-rendering:geometricPrecision; text-rendering:geometricPrecision; image-rendering:optimizeQuality; fill-rule:evenodd; clip-rule:evenodd"
viewBox="0 0 48300 33000"
 xmlns:xlink="http://www.w3.org/1999/xlink">
 <defs>
  <style type="text/css">
   <![CDATA[
    .str0 {stroke:#3FC0AB;stroke-width:105.83}
    .fil1 {fill:#3FC0AB}
    .fil0 {fill:#3FC0AB;fill-rule:nonzero}
   ]]>
  </style>
 </defs>
 <g id="Capa_x0020_1">
  <metadata id="CorelCorpID_0Corel-Layer"/>
  <path class="fil0" d="M24503 20341c-169,658 -433,1253 -792,1786 -358,531 -813,1003 -1364,1417 -549,412 -1140,721 -1770,927 -631,205 -1299,309 -2003,309 -1245,0 -2387,-195 -3425,-584 -1048,-392 -1979,-979 -2793,-1761 -817,-786 -1431,-1686 -1841,-2703 -407,-1008 -610,-2121 -610,-3338 0,-1214 203,-2331 610,-3351 410,-1026 1020,-1941 1832,-2745l3 -3c812,-803 1737,-1406 2774,-1810 1029,-402 2158,-603 3387,-603 1391,0 2597,305 3617,914 524,312 966,695 1328,1148 363,453 638,970 825,1549l68 208 -1788 1653c-182,-394 -404,-739 -667,-1032 -263,-294 -569,-543 -920,-748 -352,-206 -738,-362 -1156,-467 -422,-107 -879,-160 -1370,-160 -787,0 -1502,127 -2143,381 -638,252 -1209,630 -1714,1132l2 2c-507,507 -886,1079 -1137,1716 -254,647 -381,1372 -381,2174 0,797 127,1514 381,2153 252,632 633,1200 1142,1703 509,502 1088,878 1734,1128 653,252 1386,379 2200,379 483,0 942,-75 1378,-225 439,-151 857,-379 1255,-684 400,-307 727,-646 981,-1014 249,-363 430,-759 542,-1186l1865 1539 -50 196zm11182 4099l-2326 124 0 -7556c0,-1501 -746,-2250 -2237,-2250 -470,0 -885,70 -1247,210 -352,136 -662,341 -931,615 -272,277 -476,590 -611,938 -136,353 -205,754 -205,1203l0 6680 -3002 160 0 -15717 3002 -832 0 4947c161,-116 332,-224 513,-325 403,-224 829,-392 1278,-503 447,-112 911,-167 1393,-167 1632,0 2878,404 3739,1213 873,821 1309,2012 1309,3576l0 7648 -675 36z"/>
  <path class="fil1 str0" d="M32117 6580c-45,-191 33,-655 234,-1394l-3738 2329 4392 385c-331,-437 -580,-733 -749,-886 1664,-181 3013,53 4047,702 1104,765 987,2131 -349,4097 -1264,1860 -3161,3884 -5692,6072 -2994,2564 -6377,5174 -10148,7830 5253,-2582 10287,-6006 15102,-10273 2891,-2950 4159,-5494 3803,-7633 -539,-1615 -1911,-2280 -4115,-1997 -961,147 -1889,402 -2787,768zm-18090 19955c46,190 -32,654 -233,1393l3738 -2329 -4392 -385c330,437 580,733 749,886 -1665,181 -3013,-53 -4047,-701 -1104,-766 -988,-2132 349,-4098 1263,-1860 3160,-3884 5691,-6071 2995,-2565 6377,-5175 10148,-7831 -5253,2582 -10287,6006 -15101,10273 -2892,2950 -4159,5495 -3803,7633 539,1615 1911,2280 4115,1997 960,-146 1889,-402 2786,-767z"/>
 </g>
</svg>
