<?xml version="1.0" standalone="no"?>
<!DOCTYPE svg PUBLIC "-//W3C//DTD SVG 20010904//EN"
 "http://www.w3.org/TR/2001/REC-SVG-20010904/DTD/svg10.dtd">
<svg version="1.0" xmlns="http://www.w3.org/2000/svg"
 width="1826.000000pt" height="1826.000000pt" viewBox="0 0 1826.000000 1826.000000"
 preserveAspectRatio="xMidYMid meet">
<metadata>
Created by potrace 1.11, written by Peter Selinger 2001-2013
</metadata>
<g transform="translate(0.000000,1826.000000) scale(0.100000,-0.100000)"
fill="#000000" stroke="none">
<path d="M12140 13368 c-63 -39 -173 -108 -245 -153 -182 -115 -253 -158 -273
-170 -22 -13 -368 -228 -487 -303 -49 -32 -152 -95 -227 -142 -76 -47 -138
-87 -138 -91 0 -3 6 -6 13 -6 21 -1 181 -14 217 -18 34 -4 69 -7 230 -21 41
-3 82 -7 90 -9 8 -1 60 -6 115 -9 55 -4 111 -9 125 -11 14 -2 66 -6 115 -10
50 -4 104 -8 120 -10 32 -4 128 -12 235 -21 36 -2 85 -7 110 -9 25 -3 65 -7
90 -9 25 -3 83 -8 130 -11 47 -3 102 -8 124 -11 l38 -4 -28 37 c-15 21 -31 40
-34 43 -3 3 -21 25 -40 50 -19 25 -65 82 -102 126 -37 45 -68 84 -68 86 0 21
694 14 730 -7 3 -2 28 -6 55 -9 156 -21 389 -96 550 -177 121 -61 176 -101
249 -179 267 -289 182 -759 -255 -1405 -129 -190 -356 -495 -369 -495 -3 0
-18 11 -35 25 -16 13 -34 28 -40 33 -156 127 -485 267 -725 308 -14 2 -34 6
-45 9 -11 2 -42 7 -70 10 -27 4 -61 8 -75 11 -136 23 -642 23 -712 -1 -7 -2
-26 -6 -43 -9 -257 -42 -523 -144 -741 -284 -45 -29 -83 -52 -85 -52 -3 0 -5
414 -4 921 0 506 -2 925 -5 929 -3 5 -127 -25 -275 -66 -149 -41 -301 -84
-340 -94 -122 -33 -276 -76 -397 -110 l-118 -32 0 -2478 0 -2477 -22 -20 c-24
-22 -583 -442 -803 -604 -72 -52 -179 -131 -240 -176 -60 -44 -220 -160 -355
-256 -326 -234 -314 -225 -407 -291 -53 -38 -80 -63 -76 -72 3 -8 10 -14 16
-14 6 0 106 48 221 106 233 118 364 186 591 309 39 21 93 51 120 65 50 28 181
101 265 148 25 14 63 35 85 47 67 37 393 229 540 318 l60 37 3 -291 2 -291
133 7 c243 12 471 25 567 30 109 7 336 18 382 19 27 1 48 6 49 11 1 6 2 290 2
632 1 342 4 623 7 626 3 2 28 19 55 37 205 138 863 619 1154 845 120 93 555
441 656 524 l100 83 3 -1407 2 -1407 128 7 c141 8 209 11 392 20 69 3 151 8
183 10 31 2 121 7 200 11 78 4 156 8 172 9 17 2 37 3 46 4 14 1 15 149 14
1549 -1 851 -5 1570 -9 1597 -4 28 -12 84 -17 125 -6 41 -13 84 -15 95 -17 91
-30 143 -56 224 l-30 93 24 26 c13 14 30 33 39 41 14 14 88 101 140 166 10 11
34 41 55 66 68 81 74 89 181 232 435 583 676 1114 728 1605 7 70 7 267 0 347
-28 299 -270 626 -569 769 -60 28 -183 73 -221 80 -11 2 -38 9 -60 14 -42 11
-75 17 -190 31 -74 9 -368 7 -445 -3 -25 -3 -65 -8 -90 -11 -51 -6 -62 -8
-215 -36 -226 -43 -625 -158 -790 -229 -32 -14 -45 -16 -46 -7 -6 59 35 284
82 445 11 41 19 75 17 77 -2 2 -55 -28 -118 -67z m-237 -3593 c142 -13 232
-37 332 -88 69 -36 171 -112 179 -134 6 -15 -60 -84 -310 -323 -158 -150 -438
-407 -537 -491 -16 -13 -43 -37 -60 -52 -18 -16 -54 -48 -81 -70 -27 -23 -70
-60 -95 -82 -26 -22 -71 -60 -100 -85 -30 -25 -59 -50 -65 -56 -6 -5 -36 -30
-66 -55 -30 -24 -66 -54 -80 -66 -14 -11 -83 -69 -155 -128 -71 -59 -142 -118
-156 -130 -15 -13 -38 -30 -51 -39 l-25 -16 2 417 c1 230 6 443 10 473 47 347
246 643 536 799 68 37 189 84 244 96 52 11 62 13 95 18 19 4 62 9 95 13 33 3
61 7 62 8 4 3 162 -3 226 -9z"/>
<path d="M9675 12504 c-161 -81 -459 -235 -541 -279 -27 -15 -80 -44 -119 -65
-117 -62 -265 -144 -364 -200 -62 -36 -97 -50 -105 -44 -108 83 -420 256 -510
283 -17 5 -56 19 -86 31 -120 46 -377 106 -535 125 -27 3 -63 8 -80 10 -77 13
-428 19 -560 10 -125 -8 -212 -15 -235 -19 -14 -3 -47 -7 -75 -11 -258 -31
-614 -129 -855 -235 -167 -74 -460 -238 -541 -304 -14 -11 -37 -28 -49 -36
-33 -22 -187 -147 -240 -194 -338 -309 -629 -713 -780 -1086 -12 -30 -28 -68
-35 -85 -20 -45 -80 -230 -103 -315 -38 -140 -63 -269 -82 -410 -6 -47 -13
-98 -16 -115 -22 -154 -22 -685 0 -800 2 -11 7 -47 11 -80 9 -81 42 -273 49
-284 5 -7 -22 -42 -123 -156 -34 -39 -210 -252 -239 -290 -12 -17 -46 -61 -76
-100 -47 -62 -235 -338 -285 -420 -74 -120 -176 -316 -230 -440 -12 -27 -28
-63 -36 -80 -42 -92 -124 -353 -141 -450 -4 -22 -8 -49 -11 -60 -4 -22 -9 -59
-22 -154 -9 -74 -8 -310 3 -391 11 -77 47 -180 88 -250 4 -8 15 -28 22 -45 26
-54 112 -169 176 -233 148 -149 345 -250 575 -296 44 -8 94 -18 110 -22 48
-10 424 -13 500 -4 219 26 317 44 560 104 149 37 433 125 501 156 23 11 53 22
67 25 l26 7 -5 -69 c-3 -37 -12 -99 -21 -138 -8 -38 -16 -79 -19 -90 -2 -11
-14 -60 -28 -110 -13 -49 -25 -97 -27 -105 -2 -8 1 -14 7 -13 9 2 403 243 504
308 19 13 229 143 465 290 237 147 449 279 472 293 23 14 40 29 38 32 -2 4
-25 7 -52 8 -26 1 -91 7 -143 12 -52 5 -126 12 -165 15 -68 5 -108 9 -225 20
-30 3 -91 8 -135 10 -44 3 -93 7 -110 10 -16 2 -61 7 -100 10 -38 3 -92 7
-120 10 -27 2 -81 7 -120 10 -38 3 -89 8 -112 10 -23 3 -75 7 -115 10 -40 3
-93 8 -118 10 -25 2 -76 7 -115 11 -38 3 -80 7 -92 9 -13 2 -23 1 -23 -1 0 -9
122 -166 197 -252 40 -47 72 -87 70 -88 -6 -7 -202 -17 -322 -17 -116 -1 -277
7 -345 17 -14 2 -50 6 -80 10 -247 34 -550 144 -729 265 -122 83 -214 216
-247 357 -14 60 -21 234 -10 253 2 3 7 30 10 59 3 30 11 63 17 73 5 10 8 19 5
19 -6 0 44 145 78 227 30 73 130 266 157 305 11 14 19 29 19 32 0 17 316 472
344 496 10 7 28 -16 75 -96 331 -563 880 -1029 1496 -1272 232 -92 507 -166
725 -197 25 -3 52 -8 60 -10 8 -2 43 -7 78 -10 35 -4 72 -8 82 -10 34 -7 284
-18 400 -18 110 0 308 11 320 18 3 1 32 6 65 10 129 14 401 85 502 131 17 8
34 14 37 14 3 0 54 23 113 52 90 43 151 77 292 163 9 6 50 35 92 67 434 322
703 722 839 1248 l12 44 -40 36 c-22 19 -59 51 -83 70 -71 58 -462 380 -489
404 -40 35 -90 70 -92 65 -2 -2 -16 -42 -32 -89 -71 -208 -185 -389 -356 -561
-346 -349 -733 -514 -1200 -513 -125 1 -274 11 -350 24 -30 5 -71 12 -90 15
-292 48 -588 176 -840 364 -81 60 -272 245 -337 326 -157 196 -270 409 -339
639 -14 45 -26 91 -28 103 -4 17 39 63 212 232 119 115 227 219 240 230 13 11
69 62 125 114 106 97 257 232 367 327 35 30 71 62 79 70 9 8 43 38 76 65 33
28 62 52 65 55 3 3 45 39 95 80 49 41 101 85 115 97 14 11 59 49 100 83 41 34
84 69 95 78 51 43 132 109 150 123 11 9 49 41 85 71 36 29 99 81 140 113 41
33 84 68 95 77 11 9 90 72 175 139 85 68 157 126 160 129 3 4 30 25 60 48 30
22 127 97 215 166 l160 125 72 -40 c205 -111 382 -271 511 -460 38 -56 87
-141 110 -191 9 -21 19 -38 22 -38 3 0 28 21 55 46 116 105 380 350 460 425
95 89 140 128 148 129 15 0 6 42 -32 148 -85 238 -228 476 -383 639 l-40 41
28 18 c16 11 54 37 84 60 122 92 539 393 795 574 110 78 201 143 203 145 5 4
-10 35 -17 35 -3 0 -73 -35 -156 -76z m-2522 -1288 c59 -4 113 -9 120 -11 6
-2 30 -7 51 -10 22 -3 41 -7 43 -9 4 -3 -151 -107 -172 -115 -5 -2 -12 -7 -15
-10 -3 -4 -88 -62 -190 -131 -208 -139 -208 -139 -490 -339 -401 -283 -802
-584 -1184 -889 -77 -62 -154 -123 -171 -136 -53 -43 -159 -129 -178 -145 -17
-14 -18 -14 -13 9 3 14 8 50 11 80 10 89 11 100 39 215 39 164 72 256 141 400
129 270 284 462 556 690 60 50 237 159 341 208 234 113 451 169 738 192 47 4
86 8 87 9 4 3 186 -2 286 -8z"/>
</g>
</svg>
